<svg xmlns="http://www.w3.org/2000/svg" viewBox="0 0 512 512" fill="#fff"><path d="M441.7 136.1c-22.5-34.8-54.1-62.5-91.5-80.1-3.7-1.8-8.2-.2-10 3.6-1.8 3.7-.2 8.2 3.6 10C415.6 103.5 462 176.7 462 256c0 19.1-2.6 38.1-7.8 56.3-1.1 4 1.2 8.1 5.2 9.3a7.472 7.472 0 009.3-5.2c5.6-19.6 8.4-39.9 8.4-60.4-.1-42.7-12.3-84.2-35.4-119.9zm10.5 204.4c-3.7-1.8-8.2-.2-10 3.6C408.3 415.7 335.2 462 256 462c-113.6 0-206-92.4-206-206S142.4 50 256 50c18.9 0 37.5 2.5 55.5 7.6 4 1.1 8.1-1.2 9.2-5.2 1.1-4-1.2-8.1-5.2-9.2-19.3-5.5-39.3-8.2-59.5-8.2-59 0-114.5 23-156.3 64.7S35 197 35 256s23 114.5 64.7 156.3S197 477 256 477c42.6 0 84-12.2 119.7-35.2 34.7-22.4 62.4-54 80.1-91.3 1.8-3.7.2-8.2-3.6-10zM396 43.7l17.4 8.7 8.7 17.4c1.3 2.5 3.9 4.1 6.7 4.1s5.4-1.6 6.7-4.1l8.7-17.4 17.4-8.7c2.5-1.3 4.1-3.9 4.1-6.7s-1.6-5.4-4.1-6.7l-17.4-8.7-8.7-17.4c-1.3-2.5-3.9-4.1-6.7-4.1s-5.4 1.6-6.7 4.1l-8.7 17.4-17.4 8.7c-2.5 1.3-4.1 3.9-4.1 6.7s1.6 5.4 4.1 6.7zm26.4-9.8c1.5-.7 2.6-1.9 3.4-3.4l3.1-6.2 3.1 6.2c.7 1.5 1.9 2.6 3.4 3.4l6.2 3.1-6.3 3.1c-1.5.7-2.6 1.9-3.4 3.4l-3.1 6.2-3.1-6.2c-.7-1.5-1.9-2.6-3.4-3.4l-6.2-3.1 6.3-3.1zm82.1 342.6h-5v-5c0-4.1-3.4-7.5-7.5-7.5s-7.5 3.4-7.5 7.5v5h-5c-4.1 0-7.5 3.4-7.5 7.5s3.4 7.5 7.5 7.5h5v5c0 4.1 3.4 7.5 7.5 7.5s7.5-3.4 7.5-7.5v-5h5c4.1 0 7.5-3.4 7.5-7.5s-3.4-7.5-7.5-7.5zm-401.6 91.8l-17.4-8.7-8.7-17.4c-1.3-2.5-3.9-4.1-6.7-4.1s-5.4 1.6-6.7 4.1l-8.7 17.4-17.4 8.7c-2.5 1.3-4.1 3.9-4.1 6.7s1.6 5.4 4.1 6.7l17.4 8.7 8.7 17.4c1.3 2.5 3.9 4.1 6.7 4.1s5.4-1.6 6.7-4.1l8.7-17.4 17.4-8.7c2.5-1.3 4.1-3.9 4.1-6.7s-1.6-5.4-4.1-6.7zm-26.4 9.8c-1.5.7-2.6 1.9-3.4 3.4l-3.1 6.2-3.1-6.2c-.7-1.5-1.9-2.6-3.4-3.4l-6.2-3.1 6.3-3.1c1.5-.7 2.6-1.9 3.4-3.4l3.1-6.2 3.1 6.2c.7 1.5 1.9 2.6 3.4 3.4l6.2 3.1-6.3 3.1zM40 118c0-4.1-3.4-7.5-7.5-7.5h-5v-5c0-4.1-3.4-7.5-7.5-7.5s-7.5 3.4-7.5 7.5v5h-5c-4.1 0-7.5 3.4-7.5 7.5s3.4 7.5 7.5 7.5h5v5c0 4.1 3.4 7.5 7.5 7.5s7.5-3.4 7.5-7.5v-5h5c4.1 0 7.5-3.4 7.5-7.5zm161.5 106c0-25.1-20.4-45.5-45.5-45.5-10.9 0-21.5 3.9-29.8 11.1-3.1 2.7-3.5 7.4-.8 10.6 2.7 3.1 7.4 3.5 10.6.8 5.5-4.8 12.6-7.4 20-7.4 16.8 0 30.5 13.7 30.5 30.5s-13.7 30.5-30.5 30.5c-15.7 0-28.7-11.8-30.3-27.3-.4-4.1-4.1-7.1-8.2-6.7-4.1.4-7.1 4.1-6.7 8.2 2.4 23.3 21.8 40.8 45.3 40.8 25-.1 45.4-20.5 45.4-45.6zm49 190c-1.6 0-3.2-.1-4.8-.4-4.1-.7-7.9 2.1-8.6 6.2-.6 4.1 2.1 7.9 6.2 8.6 2.4.4 4.8.6 7.2.6 25.1 0 45.5-20.4 45.5-45.5S275.6 338 250.5 338 205 358.4 205 383.5c0 7 1.6 13.7 4.6 20 1.8 3.7 6.3 5.3 10 3.4 3.7-1.8 5.3-6.3 3.4-10-2-4.2-3.1-8.7-3.1-13.4 0-16.8 13.7-30.5 30.5-30.5s30.5 13.7 30.5 30.5-13.6 30.5-30.4 30.5zm105-272c-16.8 0-30.5 13.7-30.5 30.5s13.7 30.5 30.5 30.5 30.5-13.7 30.5-30.5-13.7-30.5-30.5-30.5zm0 46c-8.5 0-15.5-7-15.5-15.5s7-15.5 15.5-15.5 15.5 7 15.5 15.5-7 15.5-15.5 15.5zM403 348.5c0-16.8-13.7-30.5-30.5-30.5S342 331.7 342 348.5s13.7 30.5 30.5 30.5 30.5-13.7 30.5-30.5zm-46 0c0-8.5 7-15.5 15.5-15.5s15.5 7 15.5 15.5-7 15.5-15.5 15.5-15.5-7-15.5-15.5zM287.5 110c0-12.7-10.3-23-23-23s-23 10.3-23 23 10.3 23 23 23 23-10.3 23-23zm-31 0c0-4.4 3.6-8 8-8s8 3.6 8 8-3.6 8-8 8-8-3.6-8-8zM229 243c0 13.8 11.2 25 25 25s25-11.2 25-25-11.2-25-25-25-25 11.2-25 25zm25-10c5.5 0 10 4.5 10 10s-4.5 10-10 10-10-4.5-10-10 4.5-10 10-10zM94 276c-12.1 0-22 9.9-22 22s9.9 22 22 22 22-9.9 22-22-9.9-22-22-22zm0 29c-3.9 0-7-3.1-7-7s3.1-7 7-7 7 3.1 7 7-3.1 7-7 7zm328-34c0-12.1-9.9-22-22-22s-22 9.9-22 22 9.9 22 22 22 22-9.9 22-22zm-22 7c-3.9 0-7-3.1-7-7s3.1-7 7-7 7 3.1 7 7-3.1 7-7 7zM163.5 142c4.1 0 7.5 3.4 7.5 7.5s-3.4 7.5-7.5 7.5-7.5-3.4-7.5-7.5 3.4-7.5 7.5-7.5zm162-42c4.1 0 7.5 3.4 7.5 7.5s-3.4 7.5-7.5 7.5-7.5-3.4-7.5-7.5 3.4-7.5 7.5-7.5zm104 111c4.1 0 7.5 3.4 7.5 7.5s-3.4 7.5-7.5 7.5-7.5-3.4-7.5-7.5 3.4-7.5 7.5-7.5zm-84 181c4.1 0 7.5 3.4 7.5 7.5s-3.4 7.5-7.5 7.5-7.5-3.4-7.5-7.5 3.4-7.5 7.5-7.5zm-193-48c4.1 0 7.5 3.4 7.5 7.5s-3.4 7.5-7.5 7.5-7.5-3.4-7.5-7.5 3.4-7.5 7.5-7.5z"/></svg>