<svg xmlns="http://www.w3.org/2000/svg" viewBox="0 0 512 512" fill="#fff"><path d="M91.4 417c-26.2 0-47.5 21.3-47.5 47.5S65.2 512 91.4 512s47.5-21.3 47.5-47.5S117.6 417 91.4 417zm0 80c-17.9 0-32.5-14.6-32.5-32.5S73.5 432 91.4 432s32.5 14.6 32.5 32.5S109.3 497 91.4 497zM510 161.3c0-.1-.1-.1-.1-.2v-.1c-.1-.2-.1-.3-.2-.5-5.5-13.1-18.2-21.3-37.9-24.5-15-2.4-34.5-2-58.2 1.3-4.4-5.8-9-11.3-14-16.6 14.8-12.6 24.3-31.3 24.3-52.2 0-37.8-30.7-68.5-68.5-68.5-35.3 0-64.5 26.8-68.1 61.2-10.3-1.6-20.7-2.5-31.2-2.5-44.9 0-88.8 15.5-123.7 43.6-34.4 27.6-58.8 66.4-68.6 109.2-.9 4 1.6 8.1 5.6 9 .6.1 1.1.2 1.7.2 3.4 0 6.5-2.3 7.3-5.8 9.1-39.5 31.6-75.3 63.4-100.9C174.5 87.7 214 73.8 256 73.8c10.5 0 21 .9 31.3 2.7 3.9 34.1 32.9 60.6 68 60.6 11.4 0 22.2-2.8 31.6-7.8 20.1 20.7 34.9 45.8 43.3 73.3-5.1 3.4-10.9 7-17.5 10.9-76.5 46.3-215.5 98.3-303.5 113.6-7.3 1.3-13.9 2.4-19.8 3.1-3.7-8.2-6.7-16.6-9.1-25.2-.1-.3-.1-.5-.2-.8-4.3-15.6-6.4-31.7-6.4-48.2 0-3.5.1-7 .3-10.5.2-4.1-2.9-7.7-7.1-7.9-4.1-.2-7.7 2.9-7.9 7.1-.2 3.8-.3 7.6-.3 11.3 0 4.9.2 9.7.5 14.5C36.9 285 21.4 298 11.8 310.1c-11 14-14.4 27.6-9.9 40.3 0 .1 0 .2.1.2 4.3 12.3 17.5 26.8 55.7 26.8h1.7c11.6-.1 24.5-1.2 38.7-3.1 17.6 23.4 40.3 42.8 66.2 56.4 28.1 14.8 59.8 22.6 91.7 22.6 57.9 0 112.7-25.3 150.3-69.5 2.7-3.2 2.3-7.9-.8-10.6-3.2-2.7-7.9-2.3-10.6.8-34.7 40.8-85.3 64.2-138.9 64.2-54.6 0-106.4-24.7-140.9-66.6 12.5-2.2 25.8-4.9 39.8-8.3 4-1 6.5-5 5.5-9s-5-6.5-9-5.5c-18.4 4.4-35.4 7.8-50.8 10.1h-.1c-15.3 2.3-29.1 3.5-41.3 3.6-30.6.4-40.3-8.9-43.1-16.7-5.4-15.1 9.3-34.2 45.1-58.4.9 5.5 2 10.9 3.3 16.2C50 314.1 39.3 324 32.5 333l-.1.1-.1.1-.1.1c-.1.1-.2.3-.3.4-.1.1-.1.2-.2.3-.1.1-.1.2-.2.4-.1.1-.1.2-.2.4 0 .1-.1.1-.1.2v.1c0 .1-.1.3-.1.4 0 .1-.1.2-.1.3 0 .1-.1.2-.1.4 0 .1-.1.3-.1.4v1.6c0 .2 0 .4.1.6v.1c0 .2.1.4.1.6 0 .1 0 .1.1.2 0 .2.1.3.1.5 0 .1.1.2.1.2.1.1.1.3.2.4 0 .1.1.2.1.3.1.1.1.2.2.4.1.1.1.2.2.3.1.1.1.2.2.4l.2.2c.1.1.2.2.3.4l.2.2c.1.1.2.3.4.4l.1.1c.1.1.3.2.4.4h.2c.3.2.6.4 1 .6.2.1.5.2.7.3 3.1 1.2 10 3 23.4 3 11.9 0 28.8-1.4 52.9-5.7 89.5-15.6 230.8-68.5 308.6-115.5 45.1-26.8 56.8-42.7 59.8-48.3l.3-.6c.2-.4.3-.8.4-1.2v-.1-.1c0-.2.1-.4.1-.6v-.2-.5-.2-.5-.3c0-.1 0-.3-.1-.4v-.3c0-.1-.1-.3-.1-.4 0-.1 0-.2-.1-.3 0-.1-.1-.3-.1-.4 0-.1-.1-.2-.1-.3-.1-.2-.1-.3-.2-.5 0-.1-.1-.1-.1-.2-.1-.2-.2-.3-.3-.5l-.1-.1c-.1-.2-.2-.3-.3-.5l-.1-.1c-.1-.1-.2-.3-.3-.4 0-.1-.1-.1-.1-.2l-.3-.3-.2-.2c-.1-.1-.2-.2-.3-.2-.1-.1-.2-.2-.3-.2-.1-.1-.2-.1-.3-.2-.1-.1-.3-.2-.4-.2h-.1c-.1 0-.1-.1-.2-.1-.1-.1-.3-.1-.4-.2-.1-.1-.2-.1-.4-.1-.1 0-.2-.1-.3-.1-.1 0-.3-.1-.5-.1-.1 0-.1 0-.2-.1h-.2-.1c-11.1-2.4-25.7-2.8-43.5-1.2-2.6-5-5.4-9.9-8.4-14.7 41.6-4.9 66.7.3 72.8 15.4 5.9 16.9-13.5 39-59.4 67.5-60 37.7-164.5 81.5-254 106.5-4 1.1-6.3 5.3-5.2 9.2.9 3.3 3.9 5.5 7.2 5.5.7 0 1.3-.1 2-.3 87.7-24.5 189.7-66.9 251.6-104.4 0 1.8.1 3.5.1 5.3 0 32.6-8.7 64.6-25.2 92.6-2.1 3.6-.9 8.2 2.6 10.3 1.2.7 2.5 1 3.8 1 2.6 0 5.1-1.3 6.5-3.7 17.9-30.2 27.3-64.9 27.3-100.2 0-4.8-.2-9.7-.5-14.4 21.6-14 36.8-26.7 46.4-38.4 12-14.9 15.6-28.9 10.9-42.1zM301.8 68.5c0-29.5 24-53.5 53.5-53.5s53.5 24 53.5 53.5-24 53.5-53.5 53.5-53.5-24-53.5-53.5zM52.9 332.4c4.4-4.3 9.7-8.8 16-13.6 1.5 4.4 3.1 8.8 4.9 13.1-9.1.7-15.9.7-20.9.5zm406.3-152.2c-3.6 3.5-8.8 7.9-16.1 13.4-1.5-4.4-3.1-8.8-4.9-13.1 7.9-.6 14.9-.7 21-.3z"/></svg>