<svg xmlns="http://www.w3.org/2000/svg" viewBox="0 0 323.5 323.5" fill="#fff"><path d="M274.5 48.6c10.7 10.7 28.1 10.7 38.7 0 10.7-10.7 10.7-28.1 0-38.7l-.3-.3c-10.7-10.7-28.1-10.6-38.7.2s-10.5 28.1.3 38.8zm7.1-31.4c6.6-6.7 17.3-6.8 24-.2l.2.2c3.2 3.2 5 7.5 5 12 0 9.4-7.6 17-17 16.9l.1-.1c-4.5.1-8.9-1.7-12.1-4.8-6.6-6.6-6.7-17.3-.2-24zm-67.7 111.3c1.5 2.5 4.7 3.2 7.2 1.7s3.2-4.7 1.7-7.2c-18-29.6-54.5-42-86.8-29.6-2.7 1-4 4.1-3 6.7 1 2.7 4.1 4 6.7 3 27.6-10.4 58.8.2 74.2 25.4zm-51.7 160.6c-7.5 7.5-7.5 19.6 0 27.1s19.6 7.5 27.1 0 7.5-19.6 0-27.1-19.6-7.5-27.1 0zm19.7 19.8c-1.6 1.6-3.9 2.5-6.2 2.5-2.3 0-4.5-.9-6.2-2.6-3.4-3.4-3.4-9 0-12.4 3.4-3.4 9-3.4 12.4 0 3.4 3.5 3.4 9.1 0 12.5zM322.6 98c-3.4-8.4-14.3-12.7-31.4-13-20.1.3-40.1 3-59.6 8-6.9-7.2-14.9-13.3-23.7-18.1-.2-.1-.4-.3-.7-.4-2.6-1.2-5.7 0-6.9 2.6s0 5.7 2.6 6.9h.1c14.2 7.7 26 19.3 34 33.3.2.4.4.9.7 1.2 1.8 3.3 3.3 6.8 4.6 10.3.7 1.9 1.4 3.8 2 5.7l.6 2c-25.5 13.2-51.8 24.8-78.7 35-26.8 10.5-54.1 19.5-81.9 26.8l-.9-1.8c-.8-1.8-1.6-3.6-2.4-5.6-3.8-9.7-5.7-20.1-5.8-30.5v-.7c0-5.3.5-10.5 1.5-15.7 8.8-46.9 54-77.9 100.9-69.1 2.8.5 5.5-1.4 6-4.3s-1.4-5.5-4.3-6c-4.9-.9-9.8-1.4-14.8-1.6-53.5-1.6-98.1 40.5-99.7 93.9-17.6 9.3-34.1 20.6-49.1 33.7-12.6 12.2-18 23-14.8 31.5 5 12.4 27.7 15.6 61 10.8 9.2-1.3 19.2-3.2 30-5.7 17.6 18.3 41.6 28.9 66.9 29.7 53.5 1.6 98.2-40.4 99.8-93.9 9.6-5.5 18.4-10.8 26.1-16 27.8-18.8 42.7-36.6 37.9-49zM71.2 194.7c.8 2.1 1.6 4.1 2.6 6.2-17.8 4.2-29 5.8-29.6 4.2 0 0 2-1.2 5.5-4 6.2-4.7 12.7-8.9 19.5-12.6.6 2.1 1.2 4.2 2 6.2zm154.6 23.6c-32 35.4-86.7 38-122 6h.2c24.9-6.5 49.4-14.4 73.4-23.8 24.1-9.2 47.6-19.8 70.4-31.7-1.9 18.4-9.6 35.8-22 49.5zm53.2-79.9c-25.2 17.1-62.5 36-105.2 52.4-26.4 10.3-53.4 18.9-80.9 25.6h-.8c-11.4 2.7-22 4.7-31.6 6.1-28.2 4.1-47 3-49.8-4.2-1.6-4.1 2.8-11 12.3-19.7 13-11.4 27.2-21.4 42.4-29.7.3 3 .7 6 1.3 9.1-8.1 4.3-15.9 9.3-23.2 14.9-7.4 6-10.4 11.4-8.7 16 2.9 7.4 20.4 7.3 46.4 1.1 30.2-7.7 59.9-17.2 88.9-28.7 29.2-11 57.6-23.8 85.2-38.4 23.4-12.9 36.5-24.6 33.6-32-1.8-4.6-7.8-6.6-17.4-6-9.1.8-18.1 2.3-27 4.5-1.6-2.6-3.3-5.1-5.2-7.6 17-4 34.4-6.2 51.9-6.4 12.6.2 20.3 2.4 21.8 6.4 2.8 7.3-10.4 20.6-34 36.6zm-29.7-19.3h.2c7.3-1.7 14.8-2.9 22.3-3.6 4.7-.3 7.1-.6 7.1-.6.6 1.6-8.8 7.8-24.8 16.7-.7-2.1-1.4-4.2-2.2-6.3-.8-2.2-1.6-4.2-2.6-6.2zm-213.5-49c8.2 7.8 21.1 7.7 29.1-.3 8.1-8.1 8.1-21.3 0-29.4-8.1-8.1-21.3-8.1-29.4 0-8.1 8.1-8.1 21.3 0 29.4l.3.3zm7.1-22.6c4.1-4 10.6-4 14.7 0 1.9 1.9 3 4.6 3 7.3 0 5.7-4.6 10.4-10.4 10.4-2.6 0-5.2-1-7.1-2.8l-.2-.2c-4.1-4.1-4.1-10.7 0-14.7z"/></svg>