<svg xmlns="http://www.w3.org/2000/svg" viewBox="0 0 512 512" fill="#fff"><path d="M437 75C341.3-20.7 187.2-25.3 86.1 64.5c-4.1 3.7-4.5 10-.8 14.1s10 4.5 14.1.8C192.6-3.4 334.6.8 422.9 89c92 92 92 241.7 0 333.7C378.3 467.4 319.1 492 256 492c-63 0-122.3-24.5-166.9-69.1C16 349.7-1.1 239 46.5 147.3c2.5-4.9.6-10.9-4.3-13.5-4.9-2.5-10.9-.6-13.5 4.3C3.9 185.9-5.1 239.6 2.8 293.3c8 54.7 33 104.4 72.2 143.7 48.3 48.3 112.6 75 181 75s132.7-26.6 181-75c48.3-48.3 75-112.6 75-181s-26.6-132.7-75-181zM251.2 416.9c5.3 1.4 10.8-1.7 12.2-7.1 5.3-19.7-.4-41-14.9-55.4-10.8-10.8-25.3-16.8-40.6-16.8s-29.7 6-40.6 16.8c-22.4 22.4-22.4 58.8 0 81.2 10.9 10.9 25.6 16.8 40.7 16.8 4.9 0 9.9-.6 14.8-1.9 5.3-1.4 8.5-6.9 7.1-12.2-1.4-5.3-6.9-8.5-12.2-7.1-12.9 3.4-26.7-.3-36.1-9.7-14.6-14.6-14.6-38.3 0-52.9 7.1-7.1 16.5-11 26.4-11s19.4 3.9 26.4 11c9.4 9.4 13.1 23.3 9.7 36.1-1.4 5.3 1.7 10.7 7.1 12.2zm45.6-35.5c0 8.7 3.4 16.8 9.5 23 6.1 6.1 14.3 9.5 23 9.5s16.8-3.4 23-9.5c6.1-6.1 9.5-14.3 9.5-23s-3.4-16.8-9.5-23c-6.1-6.1-14.3-9.5-23-9.5s-16.8 3.4-23 9.5c-6.1 6.1-9.5 14.3-9.5 23zm23.7-8.9c2.4-2.4 5.5-3.7 8.8-3.7s6.5 1.3 8.8 3.7c2.4 2.4 3.7 5.5 3.7 8.8 0 3.3-1.3 6.5-3.7 8.8-2.4 2.4-5.5 3.7-8.8 3.7s-6.5-1.3-8.8-3.7c-2.4-2.4-3.7-5.5-3.7-8.8 0-3.3 1.3-6.4 3.7-8.8zm-158-291.1c-12.7 12.7-12.7 33.3 0 46 6.3 6.3 14.7 9.5 23 9.5s16.6-3.2 23-9.5c12.7-12.7 12.7-33.3 0-46-12.7-12.7-33.3-12.7-46 0zm31.8 31.8c-4.9 4.9-12.8 4.9-17.7 0-4.9-4.9-4.9-12.8 0-17.7 2.4-2.4 5.6-3.7 8.8-3.7s6.4 1.2 8.8 3.7c5 4.9 5 12.8.1 17.7zm-53.5 68.6c-11.7-11.7-30.7-11.7-42.4 0s-11.7 30.7 0 42.4l7.1 7.1c-.7 4.7-.7 9.5 0 14.1l-7.1 7.1c-5.6 5.7-8.8 13.2-8.8 21.2s3.1 15.6 8.8 21.2c5.6 5.7 13.2 8.8 21.2 8.8s15.6-3.1 21.2-8.8l7.1-7.1c4.7.7 9.5.7 14.1 0l7.1 7.1c5.8 5.8 13.5 8.8 21.2 8.8 7.7 0 15.4-2.9 21.2-8.8 11.7-11.7 11.7-30.7 0-42.4l-7.1-7.1c.7-4.7.7-9.5 0-14.1l7.1-7.1c11.7-11.7 11.7-30.7 0-42.4s-30.7-11.7-42.4 0l-7.1 7.1c-4.7-.7-9.5-.7-14.1 0l-7.1-7.1zm21.9 27.6c3.5.9 7.1-.1 9.7-2.6l10.9-10.9c3.9-3.9 10.2-3.9 14.1 0 1.9 1.9 2.9 4.4 2.9 7.1 0 2.7-1 5.2-2.9 7.1L186.5 221c-2.5 2.5-3.5 6.2-2.6 9.7 1.4 5.1 1.4 10.5 0 15.6-.9 3.4.1 7.1 2.6 9.6l10.9 10.9c1.9 1.9 2.9 4.4 2.9 7.1 0 2.7-1 5.2-2.9 7.1-1.9 1.9-4.4 2.9-7.1 2.9-2.7 0-5.2-1-7.1-2.9l-10.8-11c-1.9-1.9-4.5-2.9-7.1-2.9-.9 0-1.7.1-2.6.3-5.1 1.4-10.5 1.4-15.6 0-3.5-.9-7.1.1-9.7 2.6l-10.9 10.9c-1.9 1.9-4.4 2.9-7.1 2.9s-5.2-1-7.1-2.9c-1.9-1.9-2.9-4.4-2.9-7.1 0-2.7 1-5.2 2.9-7.1l10.9-10.9c2.5-2.5 3.5-6.2 2.6-9.7-1.4-5.1-1.4-10.5 0-15.6.9-3.4-.1-7.1-2.6-9.7l-10.9-10.9c-1.9-1.9-2.9-4.4-2.9-7.1 0-2.7 1-5.2 2.9-7.1 3.9-3.9 10.2-3.9 14.1 0l10.9 10.9c2.5 2.5 6.2 3.5 9.7 2.6 5.3-1.1 10.6-1.1 15.7.2zM106 337.2c-5.5 0-10 4.5-10 10s4.5 10 10 10 10-4.5 10-10c0-5.6-4.4-10-10-10zm193.2-180.4c5.5 0 10-4.5 10-10s-4.5-10-10-10-10 4.5-10 10 4.5 10 10 10zM298 280.4c5.5 0 10-4.5 10-10s-4.5-10-10-10-10 4.5-10 10 4.5 10 10 10zm105.6-75.2c-5.5 0-10 4.5-10 10s4.5 10 10 10 10-4.5 10-10-4.5-10-10-10zm.8 121.6c0 5.5 4.5 10 10 10s10-4.5 10-10-4.5-10-10-10-10 4.4-10 10zM62 114.8c5.5 0 10-4.5 10-10s-4.5-10-10-10-10 4.5-10 10 4.4 10 10 10z"/></svg>